<?xml version="1.0" encoding="UTF-8" standalone="no"?>
<!DOCTYPE svg PUBLIC "-//W3C//DTD SVG 1.1//EN"
 "http://www.w3.org/Graphics/SVG/1.1/DTD/svg11.dtd">
<!-- Generated by graphviz version 2.34.0 (20131101.1349)
 -->
<!-- Title: controllers_diagram Pages: 1 -->
<svg width="1486pt" height="889pt"
 viewBox="0.00 0.00 1485.64 889.44" xmlns="http://www.w3.org/2000/svg" xmlns:xlink="http://www.w3.org/1999/xlink">
<g id="graph0" class="graph" transform="scale(1 1) rotate(0) translate(4 885.436)">
<title>controllers_diagram</title>
<polygon fill="white" stroke="white" points="-4,4 -4,-885.436 1481.64,-885.436 1481.64,4 -4,4"/>
<!-- _diagram_info -->
<g id="node1" class="node"><title>_diagram_info</title>
<text text-anchor="start" x="584" y="-693" font-family="Times,serif" font-size="13.00">Controllers diagram</text>
<text text-anchor="start" x="584" y="-677.4" font-family="Times,serif" font-size="13.00">Date: Mar 20 2014 &#45; 17:09</text>
<text text-anchor="start" x="584" y="-661.8" font-family="Times,serif" font-size="13.00">Migration version: 20140319040341</text>
<text text-anchor="start" x="584" y="-646.2" font-family="Times,serif" font-size="13.00">Generated by RailRoady 1.1.1</text>
<text text-anchor="start" x="584" y="-630.6" font-family="Times,serif" font-size="13.00">http://railroady.prestonlee.com</text>
</g>
<!-- AdjustersController -->
<g id="node2" class="node"><title>AdjustersController</title>
<ellipse fill="none" stroke="black" cx="951.745" cy="-645.031" rx="87.9909" ry="18"/>
<text text-anchor="middle" x="951.745" y="-639.431" font-family="Times,serif" font-size="14.00">AdjustersController</text>
</g>
<!-- ApplicationController -->
<g id="node3" class="node"><title>ApplicationController</title>
<ellipse fill="none" stroke="black" cx="1165.48" cy="-652.974" rx="96.1448" ry="18"/>
<text text-anchor="middle" x="1165.48" y="-647.374" font-family="Times,serif" font-size="14.00">ApplicationController</text>
</g>
<!-- ApplicationController&#45;&gt;AdjustersController -->
<g id="edge1" class="edge"><title>ApplicationController&#45;&gt;AdjustersController</title>
<path fill="none" stroke="black" d="M1070.8,-649.456C1061.66,-649.116 1052.4,-648.772 1043.29,-648.434"/>
<polyline fill="none" stroke="black" points="1038.25,-648.246 1043.25,-648.432 "/>
</g>
<!-- CategoriesController -->
<g id="node5" class="node"><title>CategoriesController</title>
<ellipse fill="none" stroke="black" cx="1385.61" cy="-642" rx="92.0532" ry="18"/>
<text text-anchor="middle" x="1385.61" y="-636.4" font-family="Times,serif" font-size="14.00">CategoriesController</text>
</g>
<!-- ApplicationController&#45;&gt;CategoriesController -->
<g id="edge3" class="edge"><title>ApplicationController&#45;&gt;CategoriesController</title>
<path fill="none" stroke="black" d="M1258.84,-648.32C1269.51,-647.788 1280.4,-647.245 1291.09,-646.712"/>
<polyline fill="none" stroke="black" points="1296.32,-646.452 1291.33,-646.701 "/>
</g>
<!-- ContractorSelectionsController -->
<g id="node7" class="node"><title>ContractorSelectionsController</title>
<ellipse fill="none" stroke="black" cx="1181.94" cy="-863.436" rx="131.94" ry="18"/>
<text text-anchor="middle" x="1181.94" y="-857.836" font-family="Times,serif" font-size="14.00">ContractorSelectionsController</text>
</g>
<!-- ApplicationController&#45;&gt;ContractorSelectionsController -->
<g id="edge5" class="edge"><title>ApplicationController&#45;&gt;ContractorSelectionsController</title>
<path fill="none" stroke="black" d="M1166.91,-671.283C1169.91,-709.55 1176.82,-797.94 1180.12,-840.163"/>
<polyline fill="none" stroke="black" points="1180.52,-845.32 1180.13,-840.335 "/>
</g>
<!-- DonateController -->
<g id="node10" class="node"><title>DonateController</title>
<ellipse fill="none" stroke="black" cx="1396.91" cy="-852.898" rx="78.7327" ry="18"/>
<text text-anchor="middle" x="1396.91" y="-847.298" font-family="Times,serif" font-size="14.00">DonateController</text>
</g>
<!-- ApplicationController&#45;&gt;DonateController -->
<g id="edge8" class="edge"><title>ApplicationController&#45;&gt;DonateController</title>
<path fill="none" stroke="black" d="M1186.02,-670.716C1228.76,-707.636 1327.07,-792.569 1372.76,-832.035"/>
<polyline fill="none" stroke="black" points="1376.75,-835.482 1372.97,-832.213 "/>
</g>
<!-- HomeController -->
<g id="node14" class="node"><title>HomeController</title>
<ellipse fill="none" stroke="black" cx="957.973" cy="-856.778" rx="74.1605" ry="18"/>
<text text-anchor="middle" x="957.973" y="-851.178" font-family="Times,serif" font-size="14.00">HomeController</text>
</g>
<!-- ApplicationController&#45;&gt;HomeController -->
<g id="edge12" class="edge"><title>ApplicationController&#45;&gt;HomeController</title>
<path fill="none" stroke="black" d="M1147.43,-670.704C1109.32,-708.137 1020.77,-795.102 979.662,-835.476"/>
<polyline fill="none" stroke="black" points="975.836,-839.235 979.403,-835.731 "/>
</g>
<!-- AssignmentsController -->
<g id="node4" class="node"><title>AssignmentsController</title>
<ellipse fill="none" stroke="black" cx="100.627" cy="-323.428" rx="100.755" ry="18"/>
<text text-anchor="middle" x="100.627" y="-317.828" font-family="Times,serif" font-size="14.00">AssignmentsController</text>
</g>
<!-- ContractorReviewsController -->
<g id="node6" class="node"><title>ContractorReviewsController</title>
<ellipse fill="none" stroke="black" cx="977.987" cy="-323.849" rx="125.068" ry="18"/>
<text text-anchor="middle" x="977.987" y="-318.249" font-family="Times,serif" font-size="14.00">ContractorReviewsController</text>
</g>
<!-- ContractorsController -->
<g id="node8" class="node"><title>ContractorsController</title>
<ellipse fill="none" stroke="black" cx="376.982" cy="-123.694" rx="95.5699" ry="18"/>
<text text-anchor="middle" x="376.982" y="-118.094" font-family="Times,serif" font-size="14.00">ContractorsController</text>
</g>
<!-- ContributionsController -->
<g id="node9" class="node"><title>ContributionsController</title>
<ellipse fill="none" stroke="black" cx="573.816" cy="-532.005" rx="103.696" ry="18"/>
<text text-anchor="middle" x="573.816" y="-526.405" font-family="Times,serif" font-size="14.00">ContributionsController</text>
</g>
<!-- DonationsController -->
<g id="node11" class="node"><title>DonationsController</title>
<ellipse fill="none" stroke="black" cx="755.094" cy="-475.884" rx="90.3563" ry="18"/>
<text text-anchor="middle" x="755.094" y="-470.284" font-family="Times,serif" font-size="14.00">DonationsController</text>
</g>
<!-- EstimatesController -->
<g id="node12" class="node"><title>EstimatesController</title>
<ellipse fill="none" stroke="black" cx="373.655" cy="-521.906" rx="88.0564" ry="18"/>
<text text-anchor="middle" x="373.655" y="-516.306" font-family="Times,serif" font-size="14.00">EstimatesController</text>
</g>
<!-- GalleriesController -->
<g id="node13" class="node"><title>GalleriesController</title>
<ellipse fill="none" stroke="black" cx="121.243" cy="-120.805" rx="85.671" ry="18"/>
<text text-anchor="middle" x="121.243" y="-115.205" font-family="Times,serif" font-size="14.00">GalleriesController</text>
</g>
<!-- OmniauthCallbacksController -->
<g id="node15" class="node"><title>OmniauthCallbacksController</title>
<ellipse fill="none" stroke="black" cx="703.434" cy="-18" rx="127.368" ry="18"/>
<text text-anchor="middle" x="703.434" y="-12.4" font-family="Times,serif" font-size="14.00">OmniauthCallbacksController</text>
</g>
<!-- PagesController -->
<g id="node16" class="node"><title>PagesController</title>
<ellipse fill="none" stroke="black" cx="990.748" cy="-120.883" rx="73.0201" ry="18"/>
<text text-anchor="middle" x="990.748" y="-115.283" font-family="Times,serif" font-size="14.00">PagesController</text>
</g>
<!-- PhotosController -->
<g id="node17" class="node"><title>PhotosController</title>
<ellipse fill="none" stroke="black" cx="351.108" cy="-322.174" rx="77.0544" ry="18"/>
<text text-anchor="middle" x="351.108" y="-316.574" font-family="Times,serif" font-size="14.00">PhotosController</text>
</g>
<!-- ProjectsController -->
<g id="node18" class="node"><title>ProjectsController</title>
<ellipse fill="none" stroke="black" cx="756.965" cy="-173.129" rx="81.6834" ry="18"/>
<text text-anchor="middle" x="756.965" y="-167.529" font-family="Times,serif" font-size="14.00">ProjectsController</text>
</g>
<!-- UpdatesController -->
<g id="node19" class="node"><title>UpdatesController</title>
<ellipse fill="none" stroke="black" cx="578.305" cy="-114" rx="82.2489" ry="18"/>
<text text-anchor="middle" x="578.305" y="-108.4" font-family="Times,serif" font-size="14.00">UpdatesController</text>
</g>
<!-- UsersController -->
<g id="node20" class="node"><title>UsersController</title>
<ellipse fill="none" stroke="black" cx="120.141" cy="-525.98" rx="72.9449" ry="18"/>
<text text-anchor="middle" x="120.141" y="-520.38" font-family="Times,serif" font-size="14.00">UsersController</text>
</g>
<!-- VendorsController -->
<g id="node21" class="node"><title>VendorsController</title>
<ellipse fill="none" stroke="black" cx="990.527" cy="-526.043" rx="82.2583" ry="18"/>
<text text-anchor="middle" x="990.527" y="-520.443" font-family="Times,serif" font-size="14.00">VendorsController</text>
</g>
<!-- InheritedResources::Base -->
<g id="node22" class="node"><title>InheritedResources::Base</title>
<ellipse fill="none" stroke="black" cx="570.835" cy="-323.033" rx="109.937" ry="18"/>
<text text-anchor="middle" x="570.835" y="-317.433" font-family="Times,serif" font-size="14.00">InheritedResources::Base</text>
</g>
<!-- InheritedResources::Base&#45;&gt;AssignmentsController -->
<g id="edge2" class="edge"><title>InheritedResources::Base&#45;&gt;AssignmentsController</title>
<path fill="none" stroke="black" d="M482.473,-333.775C442.409,-337.818 394.392,-341.515 351.017,-341.774 297.924,-342.09 238.666,-337.952 191.131,-333.526"/>
<polyline fill="none" stroke="black" points="185.982,-333.041 190.96,-333.51 "/>
</g>
<!-- InheritedResources::Base&#45;&gt;ContractorReviewsController -->
<g id="edge4" class="edge"><title>InheritedResources::Base&#45;&gt;ContractorReviewsController</title>
<path fill="none" stroke="black" d="M680.748,-323.253C732.084,-323.356 793.582,-323.479 847.285,-323.587"/>
<polyline fill="none" stroke="black" points="852.457,-323.597 847.457,-323.587 "/>
</g>
<!-- InheritedResources::Base&#45;&gt;ContractorsController -->
<g id="edge6" class="edge"><title>InheritedResources::Base&#45;&gt;ContractorsController</title>
<path fill="none" stroke="black" d="M553.29,-304.991C517.536,-268.225 436.381,-184.774 397.932,-145.237"/>
<polyline fill="none" stroke="black" points="394.347,-141.551 397.833,-145.136 "/>
</g>
<!-- InheritedResources::Base&#45;&gt;ContributionsController -->
<g id="edge7" class="edge"><title>InheritedResources::Base&#45;&gt;ContributionsController</title>
<path fill="none" stroke="black" d="M571.094,-341.212C571.635,-379.113 572.882,-466.532 573.482,-508.581"/>
<polyline fill="none" stroke="black" points="573.555,-513.719 573.484,-508.72 "/>
</g>
<!-- InheritedResources::Base&#45;&gt;DonationsController -->
<g id="edge9" class="edge"><title>InheritedResources::Base&#45;&gt;DonationsController</title>
<path fill="none" stroke="black" d="M592.332,-340.866C626.589,-369.283 693.407,-424.711 729.872,-454.961"/>
<polyline fill="none" stroke="black" points="733.734,-458.164 729.885,-454.972 "/>
</g>
<!-- InheritedResources::Base&#45;&gt;EstimatesController -->
<g id="edge10" class="edge"><title>InheritedResources::Base&#45;&gt;EstimatesController</title>
<path fill="none" stroke="black" d="M552.989,-341.032C516.621,-377.712 434.073,-460.969 394.964,-500.413"/>
<polyline fill="none" stroke="black" points="391.318,-504.09 394.839,-500.54 "/>
</g>
<!-- InheritedResources::Base&#45;&gt;GalleriesController -->
<g id="edge11" class="edge"><title>InheritedResources::Base&#45;&gt;GalleriesController</title>
<path fill="none" stroke="black" d="M532.89,-305.965C449.158,-268.302 249.137,-178.332 162.463,-139.346"/>
<polyline fill="none" stroke="black" points="157.67,-137.19 162.23,-139.241 "/>
</g>
<!-- InheritedResources::Base&#45;&gt;PagesController -->
<g id="edge14" class="edge"><title>InheritedResources::Base&#45;&gt;PagesController</title>
<path fill="none" stroke="black" d="M606.275,-305.972C684.596,-268.267 871.852,-178.121 952.609,-139.243"/>
<polyline fill="none" stroke="black" points="957.307,-136.982 952.802,-139.151 "/>
</g>
<!-- InheritedResources::Base&#45;&gt;PhotosController -->
<g id="edge15" class="edge"><title>InheritedResources::Base&#45;&gt;PhotosController</title>
<path fill="none" stroke="black" d="M460.972,-322.603C451.648,-322.567 442.324,-322.53 433.268,-322.495"/>
<polyline fill="none" stroke="black" points="428.267,-322.475 433.267,-322.495 "/>
</g>
<!-- InheritedResources::Base&#45;&gt;ProjectsController -->
<g id="edge16" class="edge"><title>InheritedResources::Base&#45;&gt;ProjectsController</title>
<path fill="none" stroke="black" d="M592.917,-305.248C627.433,-277.45 694.019,-223.823 730.858,-194.154"/>
<polyline fill="none" stroke="black" points="735.199,-190.658 731.305,-193.795 "/>
</g>
<!-- InheritedResources::Base&#45;&gt;UpdatesController -->
<g id="edge17" class="edge"><title>InheritedResources::Base&#45;&gt;UpdatesController</title>
<path fill="none" stroke="black" d="M571.485,-304.848C572.839,-266.937 575.964,-179.492 577.467,-137.432"/>
<polyline fill="none" stroke="black" points="577.651,-132.291 577.472,-137.288 "/>
</g>
<!-- InheritedResources::Base&#45;&gt;UsersController -->
<g id="edge18" class="edge"><title>InheritedResources::Base&#45;&gt;UsersController</title>
<path fill="none" stroke="black" d="M533.184,-339.987C448.988,-377.901 246.126,-469.249 159.946,-508.056"/>
<polyline fill="none" stroke="black" points="155.185,-510.2 159.744,-508.147 "/>
</g>
<!-- InheritedResources::Base&#45;&gt;VendorsController -->
<g id="edge19" class="edge"><title>InheritedResources::Base&#45;&gt;VendorsController</title>
<path fill="none" stroke="black" d="M606.256,-340.166C684.342,-377.937 870.767,-468.114 951.807,-507.314"/>
<polyline fill="none" stroke="black" points="956.523,-509.595 952.022,-507.418 "/>
</g>
<!-- Devise::OmniauthCallbacksController -->
<g id="node23" class="node"><title>Devise::OmniauthCallbacksController</title>
<ellipse fill="none" stroke="black" cx="1027.86" cy="-18" rx="159.732" ry="18"/>
<text text-anchor="middle" x="1027.86" y="-12.4" font-family="Times,serif" font-size="14.00">Devise::OmniauthCallbacksController</text>
</g>
<!-- Devise::OmniauthCallbacksController&#45;&gt;OmniauthCallbacksController -->
<g id="edge13" class="edge"><title>Devise::OmniauthCallbacksController&#45;&gt;OmniauthCallbacksController</title>
<path fill="none" stroke="black" d="M868.023,-18C857.439,-18 846.842,-18 836.411,-18"/>
<polyline fill="none" stroke="black" points="831.305,-18 836.305,-17.9999 "/>
</g>
</g>
</svg>
