<?xml version="1.0" encoding="UTF-8" standalone="no"?>
<!DOCTYPE svg PUBLIC "-//W3C//DTD SVG 1.1//EN"
 "http://www.w3.org/Graphics/SVG/1.1/DTD/svg11.dtd">
<!-- Generated by graphviz version 2.34.0 (20131101.1349)
 -->
<!-- Title: models_diagram Pages: 1 -->
<svg width="1493pt" height="454pt"
 viewBox="0.00 0.00 1493.37 454.00" xmlns="http://www.w3.org/2000/svg" xmlns:xlink="http://www.w3.org/1999/xlink">
<g id="graph0" class="graph" transform="scale(1 1) rotate(0) translate(4 450)">
<title>models_diagram</title>
<polygon fill="white" stroke="white" points="-4,4 -4,-450 1489.37,-450 1489.37,4 -4,4"/>
<!-- _diagram_info -->
<g id="node1" class="node"><title>_diagram_info</title>
<text text-anchor="start" x="7.31226" y="-429" font-family="Times,serif" font-size="13.00">Models diagram</text>
<text text-anchor="start" x="7.31226" y="-413.4" font-family="Times,serif" font-size="13.00">Date: Mar 20 2014 &#45; 17:08</text>
<text text-anchor="start" x="7.31226" y="-397.8" font-family="Times,serif" font-size="13.00">Migration version: 20140319040341</text>
<text text-anchor="start" x="7.31226" y="-382.2" font-family="Times,serif" font-size="13.00">Generated by RailRoady 1.1.1</text>
<text text-anchor="start" x="7.31226" y="-366.6" font-family="Times,serif" font-size="13.00">http://railroady.prestonlee.com</text>
</g>
<!-- Ability -->
<g id="node2" class="node"><title>Ability</title>
<polygon fill="none" stroke="black" points="288.255,-324 233.745,-324 233.745,-288 288.255,-288 288.255,-324"/>
<text text-anchor="middle" x="261" y="-300.4" font-family="Times,serif" font-size="14.00">Ability</text>
</g>
<!-- Adjuster -->
<g id="node3" class="node"><title>Adjuster</title>
<ellipse fill="none" stroke="black" cx="633" cy="-306" rx="43.942" ry="18"/>
<text text-anchor="middle" x="633" y="-300.4" font-family="Times,serif" font-size="14.00">Adjuster</text>
</g>
<!-- Assignment -->
<g id="node5" class="node"><title>Assignment</title>
<ellipse fill="none" stroke="black" cx="559" cy="-90" rx="57.2639" ry="18"/>
<text text-anchor="middle" x="559" y="-84.4" font-family="Times,serif" font-size="14.00">Assignment</text>
</g>
<!-- Adjuster&#45;&gt;Assignment -->
<g id="edge2" class="edge"><title>Adjuster&#45;&gt;Assignment</title>
<path fill="none" stroke="#4613c8" d="M624.424,-280.198C610.366,-239.544 582.544,-159.087 568.132,-117.41"/>
<ellipse fill="none" stroke="#4613c8" cx="625.762" cy="-284.069" rx="4.00001" ry="4.00001"/>
<polygon fill="#4613c8" stroke="#4613c8" points="568.124,-117.386 569.109,-106.465 566.49,-112.661 564.856,-107.935 564.856,-107.935 564.856,-107.935 566.49,-112.661 560.603,-109.406 568.124,-117.386 568.124,-117.386"/>
</g>
<!-- Estimate -->
<g id="node13" class="node"><title>Estimate</title>
<ellipse fill="none" stroke="black" cx="679" cy="-90" rx="44.2418" ry="18"/>
<text text-anchor="middle" x="679" y="-84.4" font-family="Times,serif" font-size="14.00">Estimate</text>
</g>
<!-- Adjuster&#45;&gt;Estimate -->
<g id="edge3" class="edge"><title>Adjuster&#45;&gt;Estimate</title>
<path fill="none" stroke="#c97b3d" d="M638.386,-279.945C647.083,-239.483 664.153,-160.072 673.143,-118.249"/>
<ellipse fill="none" stroke="#c97b3d" cx="637.527" cy="-283.939" rx="4.00001" ry="4.00001"/>
<polygon fill="#c97b3d" stroke="#c97b3d" points="673.194,-118.009 679.695,-109.178 674.245,-113.121 675.296,-108.232 675.296,-108.232 675.296,-108.232 674.245,-113.121 670.896,-107.287 673.194,-118.009 673.194,-118.009"/>
</g>
<!-- Project -->
<g id="node17" class="node"><title>Project</title>
<ellipse fill="none" stroke="black" cx="901" cy="-162" rx="38.0859" ry="18"/>
<text text-anchor="middle" x="901" y="-156.4" font-family="Times,serif" font-size="14.00">Project</text>
</g>
<!-- Adjuster&#45;&gt;Project -->
<g id="edge4" class="edge"><title>Adjuster&#45;&gt;Project</title>
<path fill="none" stroke="#47b3fa" d="M659.017,-283.446C686.666,-264.61 731.416,-237.059 772,-216 800.68,-201.118 834.428,-186.453 860.349,-176.335"/>
<polygon fill="#47b3fa" stroke="#47b3fa" points="658.885,-283.537 648.103,-285.538 654.776,-286.387 650.667,-289.236 650.667,-289.236 650.667,-289.236 654.776,-286.387 653.232,-292.934 658.885,-283.537 658.885,-283.537"/>
<polygon fill="#47b3fa" stroke="#47b3fa" points="860.535,-176.264 871.483,-176.892 865.204,-174.476 869.874,-172.689 869.874,-172.689 869.874,-172.689 865.204,-174.476 868.265,-168.486 860.535,-176.264 860.535,-176.264"/>
</g>
<!-- AdminUser -->
<g id="node4" class="node"><title>AdminUser</title>
<ellipse fill="none" stroke="black" cx="401" cy="-306" rx="56.144" ry="18"/>
<text text-anchor="middle" x="401" y="-300.4" font-family="Times,serif" font-size="14.00">AdminUser</text>
</g>
<!-- Category -->
<g id="node6" class="node"><title>Category</title>
<ellipse fill="none" stroke="black" cx="836" cy="-234" rx="46.1519" ry="18"/>
<text text-anchor="middle" x="836" y="-228.4" font-family="Times,serif" font-size="14.00">Category</text>
</g>
<!-- Category&#45;&gt;Project -->
<g id="edge8" class="edge"><title>Category&#45;&gt;Project</title>
<path fill="none" stroke="#71c5f1" d="M857.944,-209.368C864.846,-201.935 872.46,-193.735 879.342,-186.324"/>
<polygon fill="#71c5f1" stroke="#71c5f1" points="857.88,-209.437 847.778,-213.703 854.478,-213.101 851.076,-216.765 851.076,-216.765 851.076,-216.765 854.478,-213.101 854.373,-219.827 857.88,-209.437 857.88,-209.437"/>
<polygon fill="#71c5f1" stroke="#71c5f1" points="879.649,-185.994 889.751,-181.728 883.051,-182.33 886.453,-178.666 886.453,-178.666 886.453,-178.666 883.051,-182.33 883.156,-175.604 879.649,-185.994 879.649,-185.994"/>
</g>
<!-- Contractor -->
<g id="node7" class="node"><title>Contractor</title>
<ellipse fill="none" stroke="black" cx="1024" cy="-234" rx="52.0008" ry="18"/>
<text text-anchor="middle" x="1024" y="-228.4" font-family="Times,serif" font-size="14.00">Contractor</text>
</g>
<!-- ContractorReview -->
<g id="node8" class="node"><title>ContractorReview</title>
<ellipse fill="none" stroke="black" cx="1153" cy="-162" rx="81.2493" ry="18"/>
<text text-anchor="middle" x="1153" y="-156.4" font-family="Times,serif" font-size="14.00">ContractorReview</text>
</g>
<!-- Contractor&#45;&gt;ContractorReview -->
<g id="edge11" class="edge"><title>Contractor&#45;&gt;ContractorReview</title>
<path fill="none" stroke="#9c53aa" d="M1057.98,-214.559C1075.36,-205.131 1096.57,-193.62 1114.54,-183.869"/>
<ellipse fill="none" stroke="#9c53aa" cx="1054.24" cy="-216.588" rx="4.00002" ry="4.00002"/>
<polygon fill="#9c53aa" stroke="#9c53aa" points="1114.82,-183.719 1125.75,-182.905 1119.21,-181.334 1123.61,-178.95 1123.61,-178.95 1123.61,-178.95 1119.21,-181.334 1121.46,-174.995 1114.82,-183.719 1114.82,-183.719"/>
</g>
<!-- ContractorSelection -->
<g id="node9" class="node"><title>ContractorSelection</title>
<ellipse fill="none" stroke="black" cx="944" cy="-90" rx="87.9037" ry="18"/>
<text text-anchor="middle" x="944" y="-84.4" font-family="Times,serif" font-size="14.00">ContractorSelection</text>
</g>
<!-- Contractor&#45;&gt;ContractorSelection -->
<g id="edge10" class="edge"><title>Contractor&#45;&gt;ContractorSelection</title>
<path fill="none" stroke="#d45682" d="M1013.45,-208.521C1005.3,-190.332 993.368,-165.12 981,-144 975.556,-134.704 968.992,-124.927 962.913,-116.336"/>
<ellipse fill="none" stroke="#d45682" cx="1015.07" cy="-212.196" rx="4.00002" ry="4.00002"/>
<polygon fill="#d45682" stroke="#d45682" points="962.9,-116.318 960.708,-105.574 959.978,-112.261 957.056,-108.204 957.056,-108.204 957.056,-108.204 959.978,-112.261 953.405,-110.834 962.9,-116.318 962.9,-116.318"/>
</g>
<!-- Gallery -->
<g id="node14" class="node"><title>Gallery</title>
<ellipse fill="none" stroke="black" cx="798" cy="-90" rx="39.4899" ry="18"/>
<text text-anchor="middle" x="798" y="-84.4" font-family="Times,serif" font-size="14.00">Gallery</text>
</g>
<!-- Contractor&#45;&gt;Gallery -->
<g id="edge14" class="edge"><title>Contractor&#45;&gt;Gallery</title>
<path fill="none" stroke="#24134f" d="M1005.39,-209.981C985.229,-185.244 954.995,-148.805 948,-144 946.799,-143.175 882.013,-120.412 837.985,-104.989"/>
<ellipse fill="none" stroke="#24134f" cx="1008.01" cy="-213.198" rx="4.00002" ry="4.00002"/>
<polygon fill="#24134f" stroke="#24134f" points="837.827,-104.933 829.876,-97.3808 833.108,-103.28 828.389,-101.628 828.389,-101.628 828.389,-101.628 833.108,-103.28 826.901,-105.875 837.827,-104.933 837.827,-104.933"/>
</g>
<!-- Contractor&#45;&gt;Project -->
<g id="edge12" class="edge"><title>Contractor&#45;&gt;Project</title>
<path fill="none" stroke="#7ceea3" d="M989.412,-213.316C971.975,-203.392 950.942,-191.422 933.766,-181.647"/>
<polygon fill="#7ceea3" stroke="#7ceea3" points="989.524,-213.379 995.989,-222.237 993.87,-215.853 998.215,-218.326 998.215,-218.326 998.215,-218.326 993.87,-215.853 1000.44,-214.415 989.524,-213.379 989.524,-213.379"/>
<polygon fill="#7ceea3" stroke="#7ceea3" points="933.359,-181.416 926.894,-172.559 929.013,-178.943 924.668,-176.47 924.668,-176.47 924.668,-176.47 929.013,-178.943 922.442,-180.381 933.359,-181.416 933.359,-181.416"/>
</g>
<!-- Trade -->
<g id="node19" class="node"><title>Trade</title>
<ellipse fill="none" stroke="black" cx="1083" cy="-90" rx="33.3267" ry="18"/>
<text text-anchor="middle" x="1083" y="-84.4" font-family="Times,serif" font-size="14.00">Trade</text>
</g>
<!-- Contractor&#45;&gt;Trade -->
<g id="edge13" class="edge"><title>Contractor&#45;&gt;Trade</title>
<path fill="none" stroke="#4f0493" d="M1034.93,-206.688C1045.53,-181.179 1061.52,-142.703 1072.1,-117.224"/>
<polygon fill="#4f0493" stroke="#4f0493" points="1034.84,-206.918 1026.84,-214.426 1032.92,-211.536 1031,-216.153 1031,-216.153 1031,-216.153 1032.92,-211.536 1035.16,-217.88 1034.84,-206.918 1034.84,-206.918"/>
<polygon fill="#4f0493" stroke="#4f0493" points="1072.17,-117.06 1080.16,-109.552 1074.09,-112.442 1076.01,-107.825 1076.01,-107.825 1076.01,-107.825 1074.09,-112.442 1071.85,-106.098 1072.17,-117.06 1072.17,-117.06"/>
</g>
<!-- ContractorStatus -->
<g id="node10" class="node"><title>ContractorStatus</title>
<ellipse fill="none" stroke="black" cx="809" cy="-306" rx="75.4144" ry="18"/>
<text text-anchor="middle" x="809" y="-300.4" font-family="Times,serif" font-size="14.00">ContractorStatus</text>
</g>
<!-- Contribution -->
<g id="node11" class="node"><title>Contribution</title>
<ellipse fill="none" stroke="black" cx="1203" cy="-90" rx="60.095" ry="18"/>
<text text-anchor="middle" x="1203" y="-84.4" font-family="Times,serif" font-size="14.00">Contribution</text>
</g>
<!-- Donation -->
<g id="node12" class="node"><title>Donation</title>
<ellipse fill="none" stroke="black" cx="988" cy="-306" rx="46.4651" ry="18"/>
<text text-anchor="middle" x="988" y="-300.4" font-family="Times,serif" font-size="14.00">Donation</text>
</g>
<!-- Photo -->
<g id="node16" class="node"><title>Photo</title>
<ellipse fill="none" stroke="black" cx="1140" cy="-18" rx="33.363" ry="18"/>
<text text-anchor="middle" x="1140" y="-12.4" font-family="Times,serif" font-size="14.00">Photo</text>
</g>
<!-- Gallery&#45;&gt;Photo -->
<g id="edge22" class="edge"><title>Gallery&#45;&gt;Photo</title>
<path fill="none" stroke="#3cf6d1" d="M835.447,-75.3463C839.323,-74.132 843.225,-72.9899 847,-72 935.027,-48.9174 1040.54,-32.5181 1097.87,-24.5258"/>
<ellipse fill="none" stroke="#3cf6d1" cx="831.375" cy="-76.6742" rx="4.00001" ry="4.00001"/>
<polygon fill="#3cf6d1" stroke="#3cf6d1" points="1098.09,-24.4954 1108.61,-27.5895 1103.04,-23.8135 1108,-23.1316 1108,-23.1316 1108,-23.1316 1103.04,-23.8135 1107.38,-18.6736 1098.09,-24.4954 1098.09,-24.4954"/>
</g>
<!-- Page -->
<g id="node15" class="node"><title>Page</title>
<ellipse fill="none" stroke="black" cx="1159" cy="-306" rx="29.216" ry="18"/>
<text text-anchor="middle" x="1159" y="-300.4" font-family="Times,serif" font-size="14.00">Page</text>
</g>
<!-- Project&#45;&gt;Adjuster -->
<g id="edge33" class="edge"><title>Project&#45;&gt;Adjuster</title>
<path fill="none" stroke="#2a0d67" d="M868.707,-179.242C846.257,-189.155 816.04,-202.488 790,-216 746.638,-238.501 698.519,-268.413 666.943,-287.187"/>
<ellipse fill="none" stroke="#2a0d67" cx="872.647" cy="-177.501" rx="4.00002" ry="4.00002"/>
<ellipse fill="#2a0d67" stroke="#2a0d67" cx="663.123" cy="-289.444" rx="4.00002" ry="4.00002"/>
</g>
<!-- Project&#45;&gt;Assignment -->
<g id="edge32" class="edge"><title>Project&#45;&gt;Assignment</title>
<path fill="none" stroke="#9d65d5" d="M857.503,-153.513C802.975,-143.928 706.734,-126.355 625,-108 619.803,-106.833 614.393,-105.551 609.006,-104.23"/>
<ellipse fill="none" stroke="#9d65d5" cx="861.624" cy="-154.235" rx="4.00001" ry="4.00001"/>
<ellipse fill="#9d65d5" stroke="#9d65d5" cx="605.037" cy="-103.242" rx="4.00001" ry="4.00001"/>
</g>
<!-- Project&#45;&gt;ContractorSelection -->
<g id="edge30" class="edge"><title>Project&#45;&gt;ContractorSelection</title>
<path fill="none" stroke="#ef833a" d="M915.53,-137.346C919.601,-130.719 924.046,-123.483 928.188,-116.74"/>
<ellipse fill="none" stroke="#ef833a" cx="913.284" cy="-141.003" rx="4.00002" ry="4.00002"/>
<polygon fill="#ef833a" stroke="#ef833a" points="928.35,-116.477 937.418,-110.312 930.967,-112.217 933.584,-107.956 933.584,-107.956 933.584,-107.956 930.967,-112.217 929.75,-105.601 928.35,-116.477 928.35,-116.477"/>
</g>
<!-- Project&#45;&gt;Contribution -->
<g id="edge28" class="edge"><title>Project&#45;&gt;Contribution</title>
<path fill="none" stroke="#9434f2" d="M942.435,-151.396C995.552,-139.084 1087.85,-117.691 1147.14,-103.949"/>
<ellipse fill="none" stroke="#9434f2" cx="938.37" cy="-152.338" rx="4.00001" ry="4.00001"/>
<polygon fill="#9434f2" stroke="#9434f2" points="1147.34,-103.902 1158.09,-106.028 1152.21,-102.773 1157.08,-101.644 1157.08,-101.644 1157.08,-101.644 1152.21,-102.773 1156.06,-97.2602 1147.34,-103.902 1147.34,-103.902"/>
</g>
<!-- Project&#45;&gt;Estimate -->
<g id="edge34" class="edge"><title>Project&#45;&gt;Estimate</title>
<path fill="none" stroke="#28092c" d="M862.287,-148.793C823.267,-136.49 763.158,-117.536 722.51,-104.719"/>
<ellipse fill="none" stroke="#28092c" cx="866.317" cy="-150.064" rx="4.00001" ry="4.00001"/>
<polygon fill="#28092c" stroke="#28092c" points="722.413,-104.689 714.229,-97.3898 717.644,-103.185 712.876,-101.681 712.876,-101.681 712.876,-101.681 717.644,-103.185 711.522,-105.973 722.413,-104.689 722.413,-104.689"/>
</g>
<!-- Project&#45;&gt;Gallery -->
<g id="edge29" class="edge"><title>Project&#45;&gt;Gallery</title>
<path fill="none" stroke="#748851" d="M873.171,-142.087C859.095,-132.521 842.004,-120.906 827.677,-111.169"/>
<ellipse fill="none" stroke="#748851" cx="876.848" cy="-144.586" rx="4.00002" ry="4.00002"/>
<polygon fill="#748851" stroke="#748851" points="827.437,-111.006 821.696,-101.663 823.301,-108.195 819.166,-105.385 819.166,-105.385 819.166,-105.385 823.301,-108.195 816.637,-109.107 827.437,-111.006 827.437,-111.006"/>
</g>
<!-- Project&#45;&gt;Trade -->
<g id="edge26" class="edge"><title>Project&#45;&gt;Trade</title>
<path fill="none" stroke="#92beb6" d="M939.515,-146.688C967.688,-136.153 1006.8,-121.394 1041,-108 1043.22,-107.129 1045.51,-106.225 1047.82,-105.308"/>
<polygon fill="#92beb6" stroke="#92beb6" points="939.4,-146.731 928.458,-146.013 934.716,-148.48 930.032,-150.229 930.032,-150.229 930.032,-150.229 934.716,-148.48 931.606,-154.444 939.4,-146.731 939.4,-146.731"/>
<polygon fill="#92beb6" stroke="#92beb6" points="1047.99,-105.24 1058.94,-105.699 1052.63,-103.381 1057.27,-101.521 1057.27,-101.521 1057.27,-101.521 1052.63,-103.381 1055.6,-97.3442 1047.99,-105.24 1047.99,-105.24"/>
</g>
<!-- Update -->
<g id="node20" class="node"><title>Update</title>
<ellipse fill="none" stroke="black" cx="1320" cy="-90" rx="38.3853" ry="18"/>
<text text-anchor="middle" x="1320" y="-84.4" font-family="Times,serif" font-size="14.00">Update</text>
</g>
<!-- Project&#45;&gt;Update -->
<g id="edge27" class="edge"><title>Project&#45;&gt;Update</title>
<path fill="none" stroke="#b51bf5" d="M945.858,-155.724C1030.54,-145.577 1210.93,-123.018 1272,-108 1275.18,-107.219 1278.44,-106.308 1281.69,-105.322"/>
<ellipse fill="none" stroke="#b51bf5" cx="941.696" cy="-156.221" rx="4.00001" ry="4.00001"/>
<polygon fill="#b51bf5" stroke="#b51bf5" points="1281.83,-105.276 1292.73,-106.471 1286.59,-103.734 1291.35,-102.191 1291.35,-102.191 1291.35,-102.191 1286.59,-103.734 1289.96,-97.9104 1281.83,-105.276 1281.83,-105.276"/>
</g>
<!-- Vendor -->
<g id="node22" class="node"><title>Vendor</title>
<ellipse fill="none" stroke="black" cx="1416" cy="-90" rx="38.3923" ry="18"/>
<text text-anchor="middle" x="1416" y="-84.4" font-family="Times,serif" font-size="14.00">Vendor</text>
</g>
<!-- Project&#45;&gt;Vendor -->
<g id="edge31" class="edge"><title>Project&#45;&gt;Vendor</title>
<path fill="none" stroke="#cabbfe" d="M946.095,-156.143C1059.06,-143.94 1346.62,-112.635 1367,-108 1370.44,-107.218 1373.98,-106.276 1377.5,-105.243"/>
<ellipse fill="none" stroke="#cabbfe" cx="941.926" cy="-156.593" rx="4" ry="4"/>
<polygon fill="#cabbfe" stroke="#cabbfe" points="1377.75,-105.162 1388.65,-106.434 1382.52,-103.653 1387.29,-102.144 1387.29,-102.144 1387.29,-102.144 1382.52,-103.653 1385.93,-97.8539 1377.75,-105.162 1377.75,-105.162"/>
</g>
<!-- Role -->
<g id="node18" class="node"><title>Role</title>
<ellipse fill="none" stroke="black" cx="1236" cy="-306" rx="28.9157" ry="18"/>
<text text-anchor="middle" x="1236" y="-300.4" font-family="Times,serif" font-size="14.00">Role</text>
</g>
<!-- User -->
<g id="node21" class="node"><title>User</title>
<ellipse fill="none" stroke="black" cx="1153" cy="-234" rx="28.9087" ry="18"/>
<text text-anchor="middle" x="1153" y="-228.4" font-family="Times,serif" font-size="14.00">User</text>
</g>
<!-- Role&#45;&gt;User -->
<g id="edge36" class="edge"><title>Role&#45;&gt;User</title>
<path fill="none" stroke="#a16a77" d="M1211.23,-284.113C1200.48,-275.046 1187.93,-264.461 1177.24,-255.444"/>
<polygon fill="#a16a77" stroke="#a16a77" points="1211.56,-284.387 1216.3,-294.274 1215.38,-287.611 1219.2,-290.834 1219.2,-290.834 1219.2,-290.834 1215.38,-287.611 1222.1,-287.394 1211.56,-284.387 1211.56,-284.387"/>
<polygon fill="#a16a77" stroke="#a16a77" points="1177.13,-255.353 1172.39,-245.466 1173.31,-252.129 1169.49,-248.906 1169.49,-248.906 1169.49,-248.906 1173.31,-252.129 1166.59,-252.346 1177.13,-255.353 1177.13,-255.353"/>
</g>
<!-- User&#45;&gt;ContractorReview -->
<g id="edge42" class="edge"><title>User&#45;&gt;ContractorReview</title>
<path fill="none" stroke="#5157fd" d="M1153,-207.64C1153,-202.063 1153,-196.132 1153,-190.476"/>
<ellipse fill="none" stroke="#5157fd" cx="1153" cy="-211.697" rx="4" ry="4"/>
<polygon fill="#5157fd" stroke="#5157fd" points="1153,-190.104 1157.5,-180.104 1153,-185.104 1153,-180.104 1153,-180.104 1153,-180.104 1153,-185.104 1148.5,-180.104 1153,-190.104 1153,-190.104"/>
</g>
<!-- User&#45;&gt;Contribution -->
<g id="edge41" class="edge"><title>User&#45;&gt;Contribution</title>
<path fill="none" stroke="#7053f9" d="M1186.67,-222.716C1206.89,-214.606 1230.95,-201.078 1243,-180 1255.03,-158.956 1241.12,-133.633 1226.5,-115.388"/>
<ellipse fill="none" stroke="#7053f9" cx="1182.89" cy="-224.147" rx="4.00001" ry="4.00001"/>
<polygon fill="#7053f9" stroke="#7053f9" points="1226.31,-115.16 1223.26,-104.628 1223.07,-111.352 1219.83,-107.544 1219.83,-107.544 1219.83,-107.544 1223.07,-111.352 1216.4,-110.46 1226.31,-115.16 1226.31,-115.16"/>
</g>
<!-- User&#45;&gt;Project -->
<g id="edge40" class="edge"><title>User&#45;&gt;Project</title>
<path fill="none" stroke="#c61642" d="M1119.23,-223.62C1073.63,-210.953 992.383,-188.384 942.925,-174.646"/>
<ellipse fill="none" stroke="#c61642" cx="1123.13" cy="-224.702" rx="4.00001" ry="4.00001"/>
<polygon fill="#c61642" stroke="#c61642" points="942.813,-174.615 934.382,-167.602 937.996,-173.277 933.178,-171.938 933.178,-171.938 933.178,-171.938 937.996,-173.277 931.974,-176.274 942.813,-174.615 942.813,-174.615"/>
</g>
<!-- Object -->
<g id="node23" class="node"><title>Object</title>
<ellipse fill="none" stroke="black" cx="261" cy="-403" rx="36.1697" ry="18"/>
<text text-anchor="middle" x="261" y="-397.4" font-family="Times,serif" font-size="14.00">Object</text>
</g>
<!-- Object&#45;&gt;Ability -->
<g id="edge1" class="edge"><title>Object&#45;&gt;Ability</title>
<path fill="none" stroke="black" d="M261,-384.576C261,-369.041 261,-346.217 261,-329.345"/>
<polyline fill="none" stroke="black" points="261,-324.314 261,-329.314 "/>
</g>
<!-- ActiveRecord::Base -->
<g id="node24" class="node"><title>ActiveRecord::Base</title>
<ellipse fill="none" stroke="black" cx="1026" cy="-403" rx="88.2033" ry="18"/>
<text text-anchor="middle" x="1026" y="-397.4" font-family="Times,serif" font-size="14.00">ActiveRecord::Base</text>
</g>
<!-- ActiveRecord::Base&#45;&gt;Adjuster -->
<g id="edge5" class="edge"><title>ActiveRecord::Base&#45;&gt;Adjuster</title>
<path fill="none" stroke="black" d="M967.656,-389.462C900.624,-374.814 787.451,-349.342 691,-324 684.974,-322.417 678.624,-320.653 672.423,-318.879"/>
<polyline fill="none" stroke="black" points="667.26,-317.389 672.064,-318.775 "/>
</g>
<!-- ActiveRecord::Base&#45;&gt;AdminUser -->
<g id="edge6" class="edge"><title>ActiveRecord::Base&#45;&gt;AdminUser</title>
<path fill="none" stroke="black" d="M949.752,-393.697C842.416,-381.462 640.875,-356.483 471,-324 463.615,-322.588 455.837,-320.901 448.259,-319.147"/>
<polyline fill="none" stroke="black" points="443.052,-317.924 447.919,-319.067 "/>
</g>
<!-- ActiveRecord::Base&#45;&gt;Assignment -->
<g id="edge7" class="edge"><title>ActiveRecord::Base&#45;&gt;Assignment</title>
<path fill="none" stroke="black" d="M940.252,-398.581C764.311,-390.684 375.63,-368.363 336,-324 261.114,-240.172 440.809,-144.535 521.86,-107.16"/>
<polyline fill="none" stroke="black" points="526.583,-104.996 522.037,-107.078 "/>
</g>
<!-- ActiveRecord::Base&#45;&gt;Category -->
<g id="edge9" class="edge"><title>ActiveRecord::Base&#45;&gt;Category</title>
<path fill="none" stroke="black" d="M951.555,-393.184C871.409,-381.982 751.646,-359.694 724,-324 714.203,-311.351 715.441,-301.519 724,-288 738.671,-264.826 766.51,-251.589 790.761,-244.139"/>
<polyline fill="none" stroke="black" points="795.559,-242.725 790.763,-244.139 "/>
</g>
<!-- ActiveRecord::Base&#45;&gt;Contractor -->
<g id="edge15" class="edge"><title>ActiveRecord::Base&#45;&gt;Contractor</title>
<path fill="none" stroke="black" d="M1031.95,-384.963C1038.97,-362.641 1048.96,-322.304 1043,-288 1041.18,-277.503 1037.46,-266.336 1033.79,-256.974"/>
<polyline fill="none" stroke="black" points="1031.89,-252.255 1033.76,-256.892 "/>
</g>
<!-- ActiveRecord::Base&#45;&gt;ContractorReview -->
<g id="edge16" class="edge"><title>ActiveRecord::Base&#45;&gt;ContractorReview</title>
<path fill="none" stroke="black" d="M1112.93,-399.46C1168.72,-392.755 1237.35,-373.944 1274,-324 1311.97,-272.249 1233.26,-211.928 1185.69,-181.94"/>
<polyline fill="none" stroke="black" points="1181.19,-179.134 1185.43,-181.779 "/>
</g>
<!-- ActiveRecord::Base&#45;&gt;ContractorSelection -->
<g id="edge17" class="edge"><title>ActiveRecord::Base&#45;&gt;ContractorSelection</title>
<path fill="none" stroke="black" d="M939.061,-399.584C822.493,-394.301 624.943,-377.485 580,-324 485.018,-210.965 751.106,-134.038 879.312,-104.493"/>
<polyline fill="none" stroke="black" points="884.563,-103.292 879.689,-104.407 "/>
</g>
<!-- ActiveRecord::Base&#45;&gt;ContractorStatus -->
<g id="edge18" class="edge"><title>ActiveRecord::Base&#45;&gt;ContractorStatus</title>
<path fill="none" stroke="black" d="M990.167,-386.313C951.068,-369.196 888.67,-341.878 848.267,-324.191"/>
<polyline fill="none" stroke="black" points="843.452,-322.083 848.032,-324.088 "/>
</g>
<!-- ActiveRecord::Base&#45;&gt;Contribution -->
<g id="edge19" class="edge"><title>ActiveRecord::Base&#45;&gt;Contribution</title>
<path fill="none" stroke="black" d="M1098.01,-392.493C1175.21,-380.694 1290.44,-357.894 1318,-324 1369.95,-260.099 1330.66,-203.764 1274,-144 1261.63,-130.951 1245.75,-118.767 1232.15,-109.379"/>
<polyline fill="none" stroke="black" points="1228,-106.558 1232.14,-109.373 "/>
</g>
<!-- ActiveRecord::Base&#45;&gt;Donation -->
<g id="edge20" class="edge"><title>ActiveRecord::Base&#45;&gt;Donation</title>
<path fill="none" stroke="black" d="M1019.21,-385.016C1012.94,-369.345 1003.6,-345.99 996.767,-328.918"/>
<polyline fill="none" stroke="black" points="994.735,-323.837 996.592,-328.479 "/>
</g>
<!-- ActiveRecord::Base&#45;&gt;Estimate -->
<g id="edge21" class="edge"><title>ActiveRecord::Base&#45;&gt;Estimate</title>
<path fill="none" stroke="black" d="M938.104,-400.72C814.019,-396.839 597.081,-381.739 548,-324 495.103,-261.772 529.034,-203.483 585,-144 600.977,-127.019 623.635,-114.022 642.703,-105.15"/>
<polyline fill="none" stroke="black" points="647.467,-102.983 642.916,-105.053 "/>
</g>
<!-- ActiveRecord::Base&#45;&gt;Gallery -->
<g id="edge23" class="edge"><title>ActiveRecord::Base&#45;&gt;Gallery</title>
<path fill="none" stroke="black" d="M938.404,-400.379C816.647,-396.061 605.785,-380.408 558,-324 548.36,-312.62 548.91,-241.575 562,-216 585.18,-170.709 606.674,-168.976 651,-144 685.631,-124.487 728.776,-109.948 759.343,-101.082"/>
<polyline fill="none" stroke="black" points="764.518,-99.6005 759.711,-100.977 "/>
</g>
<!-- ActiveRecord::Base&#45;&gt;Page -->
<g id="edge24" class="edge"><title>ActiveRecord::Base&#45;&gt;Page</title>
<path fill="none" stroke="black" d="M1049.17,-385.452C1073.65,-367.964 1112.01,-340.562 1136.31,-323.205"/>
<polyline fill="none" stroke="black" points="1140.38,-320.297 1136.32,-323.203 "/>
</g>
<!-- ActiveRecord::Base&#45;&gt;Photo -->
<g id="edge25" class="edge"><title>ActiveRecord::Base&#45;&gt;Photo</title>
<path fill="none" stroke="black" d="M1110.14,-397.411C1187.42,-390.199 1303.11,-371.659 1392,-324 1441.86,-297.269 1483,-291.572 1483,-235 1483,-235 1483,-235 1483,-161 1483,-120.458 1492.49,-99.8182 1463,-72 1422.53,-33.8269 1255.01,-23.0424 1178.47,-20.0813"/>
<polyline fill="none" stroke="black" points="1173.12,-19.8814 1178.11,-20.0681 "/>
</g>
<!-- ActiveRecord::Base&#45;&gt;Project -->
<g id="edge35" class="edge"><title>ActiveRecord::Base&#45;&gt;Project</title>
<path fill="none" stroke="black" d="M997.58,-385.932C976.121,-372.27 947.764,-350.648 932,-324 905.97,-279.997 901.206,-218.488 900.68,-185.698"/>
<polyline fill="none" stroke="black" points="900.628,-180.304 900.677,-185.304 "/>
</g>
<!-- ActiveRecord::Base&#45;&gt;Role -->
<g id="edge37" class="edge"><title>ActiveRecord::Base&#45;&gt;Role</title>
<path fill="none" stroke="black" d="M1060.68,-386.313C1102.04,-367.601 1170.35,-336.699 1208.34,-319.513"/>
<polyline fill="none" stroke="black" points="1213.27,-317.284 1208.71,-319.345 "/>
</g>
<!-- ActiveRecord::Base&#45;&gt;Trade -->
<g id="edge38" class="edge"><title>ActiveRecord::Base&#45;&gt;Trade</title>
<path fill="none" stroke="black" d="M1094.42,-391.56C1165.61,-379.135 1270,-355.976 1294,-324 1330.35,-275.566 1323.9,-223.186 1243,-144 1206.54,-108.312 1182.42,-124.067 1134,-108 1128.05,-106.025 1121.71,-103.916 1115.59,-101.879"/>
<polyline fill="none" stroke="black" points="1110.52,-100.189 1115.27,-101.77 "/>
</g>
<!-- ActiveRecord::Base&#45;&gt;Update -->
<g id="edge39" class="edge"><title>ActiveRecord::Base&#45;&gt;Update</title>
<path fill="none" stroke="black" d="M1101.21,-393.499C1184.69,-382.411 1311.8,-360.057 1343,-324 1395.6,-263.198 1353.19,-157.26 1331.18,-112.229"/>
<polyline fill="none" stroke="black" points="1328.87,-107.554 1331.09,-112.034 "/>
</g>
<!-- ActiveRecord::Base&#45;&gt;User -->
<g id="edge43" class="edge"><title>ActiveRecord::Base&#45;&gt;User</title>
<path fill="none" stroke="black" d="M1038.88,-385.068C1062.53,-353.959 1112.79,-287.869 1137.97,-254.763"/>
<polyline fill="none" stroke="black" points="1141.21,-250.51 1138.18,-254.489 "/>
</g>
<!-- ActiveRecord::Base&#45;&gt;Vendor -->
<g id="edge44" class="edge"><title>ActiveRecord::Base&#45;&gt;Vendor</title>
<path fill="none" stroke="black" d="M1102.7,-393.965C1191.38,-383.09 1329.81,-360.71 1366,-324 1423.2,-265.989 1421.99,-159.367 1418.38,-113.238"/>
<polyline fill="none" stroke="black" points="1417.96,-108.18 1418.37,-113.163 "/>
</g>
</g>
</svg>
